<svg width="14" height="20" viewBox="0 0 14 20" xmlns="http://www.w3.org/2000/svg"><path d="M11.38 1.953C10.078.651 8.507 0 6.667 0c-1.84 0-3.412.651-4.714 1.953C.651 3.255 0 4.826 0 6.667c0 .946.143 1.723.43 2.33l4.752 10.079a1.5 1.5 0 00.606.676c.273.165.566.248.879.248.312 0 .605-.083.879-.248.273-.164.48-.39.618-.676l4.74-10.079c.286-.607.43-1.384.43-2.33 0-1.84-.651-3.412-1.954-4.714zm-2.357 7.07c-.65.651-1.436.977-2.356.977-.92 0-1.706-.326-2.357-.977a3.212 3.212 0 01-.977-2.356c0-.92.326-1.706.977-2.357a3.212 3.212 0 012.357-.977c.92 0 1.705.326 2.356.977.651.65.977 1.436.977 2.357 0 .92-.326 1.705-.977 2.356z" fill="#C2185B" fill-rule="nonzero"/></svg>