<?xml version="1.0" encoding="UTF-8"?>
<svg width="14px" height="20px" viewBox="0 0 14 20" version="1.1" xmlns="http://www.w3.org/2000/svg" xmlns:xlink="http://www.w3.org/1999/xlink">
    <!-- Generator: Sketch 64 (93537) - https://sketch.com -->
    <title>Shape</title>
    <desc>Created with Sketch.</desc>
    <g id="Page-1" stroke="none" stroke-width="1" fill="none" fill-rule="evenodd">
        <g id="2" transform="translate(-33.000000, -138.000000)" fill="#C2185B" fill-rule="nonzero">
            <g id="aside" transform="translate(21.000000, 98.000000)">
                <g id="regions">
                    <g id="item" transform="translate(0.000000, 29.000000)">
                        <g id="marker" transform="translate(12.000000, 11.000000)">
                            <path d="M11.3803128,1.95308937 C10.0783296,0.650892971 8.50699259,0 6.66671221,0 C4.82634063,0 3.25518604,0.65102979 1.95311162,1.95308937 C0.651082814,3.25510334 0,4.82628564 0,6.66663626 C0,7.61292117 0.143205382,8.38973311 0.42957054,8.99739132 L5.18225617,19.0757429 C5.31250922,19.361968 5.51441056,19.5876735 5.78782339,19.7524491 C6.06128182,19.917407 6.35421435,20 6.66680343,20 C6.97930129,20 7.27237065,19.917407 7.54578347,19.7524491 C7.8192419,19.5876735 8.02524786,19.361968 8.1641662,19.0757429 L12.9035346,8.99739132 C13.1900366,8.38973311 13.3333333,7.61287557 13.3333333,6.66663626 C13.3335612,4.82628564 12.6826153,3.25528577 11.3803128,1.95308937 Z M9.02339849,9.02343251 C8.3724525,9.67432548 7.58692081,9.99990879 6.66671221,9.99990879 C5.74650362,9.99990879 4.96097193,9.67432548 4.30984351,9.02343251 C3.6588063,8.37231151 3.33321929,7.58678877 3.33321929,6.66659066 C3.33321929,5.74648376 3.6588063,4.9608242 4.30984351,4.30988562 C4.96097193,3.65885583 5.74664044,3.33327252 6.66671221,3.33327252 C7.58692081,3.33327252 8.3724525,3.65885583 9.02339849,4.30988562 C9.67439009,4.96077859 9.99997711,5.74648376 9.99997711,6.66659066 C9.99997711,7.58669756 9.6744357,8.37217469 9.02339849,9.02343251 Z" id="Shape"></path>
                        </g>
                    </g>
                </g>
            </g>
        </g>
    </g>
</svg>