<svg width="32" height="32" viewBox="0 0 32 32" xmlns="http://www.w3.org/2000/svg"><path d="M15.786.001C6.951.12-.116 7.38.002 16.215.12 25.048 7.379 32.116 16.214 32c8.834-.12 15.902-7.379 15.785-16.214C31.88 6.952 24.62-.117 15.786 0zM15.74 25.74l-.088-.001c-1.36-.04-2.32-1.043-2.282-2.384.038-1.317 1.02-2.274 2.337-2.274l.079.002c1.398.041 2.347 1.033 2.308 2.413-.04 1.321-1.007 2.244-2.354 2.244zm5.724-11.36c-.32.455-1.024 1.02-1.91 1.71l-.977.674c-.536.417-.86.81-.98 1.195-.097.304-.143.384-.152 1.002l-.001.157h-3.728l.01-.316c.046-1.297.078-2.06.616-2.69.843-.99 2.702-2.187 2.781-2.238.267-.2.492-.43.659-.673.391-.54.564-.965.564-1.382 0-.579-.171-1.115-.511-1.592-.327-.46-.947-.693-1.845-.693-.89 0-1.5.283-1.864.862-.375.596-.564 1.222-.564 1.861v.159H9.717l.007-.166c.099-2.354.94-4.05 2.497-5.039.978-.63 2.195-.95 3.616-.95 1.86 0 3.43.453 4.665 1.344 1.252.903 1.887 2.255 1.887 4.02 0 .986-.311 1.913-.926 2.755z" fill="#546E7A" fill-rule="nonzero"/></svg>