<?xml version="1.0" encoding="UTF-8"?>
<svg width="32px" height="32px" viewBox="0 0 32 32" version="1.1" xmlns="http://www.w3.org/2000/svg" xmlns:xlink="http://www.w3.org/1999/xlink">
    <!-- Generator: Sketch 64 (93537) - https://sketch.com -->
    <title>Shape</title>
    <desc>Created with Sketch.</desc>
    <g id="Page-1" stroke="none" stroke-width="1" fill="none" fill-rule="evenodd">
        <g id="2" transform="translate(-1228.000000, -28.000000)" fill="#546E7A" fill-rule="nonzero">
            <g id="header" transform="translate(24.000000, 24.000000)">
                <g id="question" transform="translate(1204.000000, 4.000000)">
                    <path d="M15.7864348,0.00139130435 C6.9506087,0.119652174 -0.115826087,7.37913043 0.00173913043,16.2153043 C0.12,25.0476522 7.37878261,32.1161739 16.2142609,31.9986087 C25.0483478,31.8796522 32.1161739,24.6201739 31.9986087,15.7846957 C31.8803478,6.95165217 24.6212174,-0.116521739 15.7864348,0.00139130435 Z M15.7391304,25.7391304 L15.6507826,25.7377391 C14.290087,25.6973913 13.3307826,24.6949565 13.3693913,23.3544348 C13.4073043,22.0368696 14.389913,21.0803478 15.7057391,21.0803478 L15.7846957,21.0817391 C17.1833043,21.1231304 18.1318261,22.1154783 18.0925217,23.4946087 C18.0535652,24.816 17.0862609,25.7391304 15.7391304,25.7391304 Z M21.4626087,14.3794783 C21.1426087,14.834087 20.4389565,15.3986087 19.5523478,16.0893913 L18.576,16.7634783 C18.04,17.1801739 17.7165217,17.5721739 17.5951304,17.957913 C17.4994783,18.2615652 17.4525217,18.341913 17.4441739,18.9596522 L17.4427826,19.1165217 L13.7147826,19.1165217 L13.7255652,18.8010435 C13.7711304,17.5043478 13.8031304,16.7415652 14.3405217,16.1113043 C15.1836522,15.1213913 17.0434783,13.9238261 17.1224348,13.8730435 C17.3888696,13.6723478 17.6135652,13.4438261 17.7808696,13.1996522 C18.1721739,12.6601739 18.3453913,12.2354783 18.3453913,11.818087 C18.3453913,11.2389565 18.1735652,10.7033043 17.8337391,10.2264348 C17.5071304,9.76626087 16.8866087,9.53321739 15.9892174,9.53321739 C15.0991304,9.53321739 14.4897391,9.81565217 14.1252174,10.3951304 C13.7502609,10.9909565 13.5606957,11.6166957 13.5606957,12.256 L13.5606957,12.4149565 L9.71686957,12.4149565 L9.72382609,12.2490435 C9.82295652,9.8946087 10.6633043,8.19930435 12.2205217,7.21008696 C13.1989565,6.58017391 14.4163478,6.26086957 15.8368696,6.26086957 C17.6963478,6.26086957 19.266087,6.71269565 20.501913,7.60382609 C21.754087,8.50678261 22.3892174,9.85913043 22.3892174,11.6233043 C22.3892174,12.610087 22.0775652,13.5370435 21.4626087,14.3794783 Z" id="Shape"></path>
                </g>
            </g>
        </g>
    </g>
</svg>